<svg width="128" height="28" fill="none" xmlns="http://www.w3.org/2000/svg"><path d="M10.24 17.856L7.576 20.7V27H.52V1.8h7.056v10.476L17.332 1.8h7.848L14.884 12.96 25.72 27h-8.28l-7.2-9.144zm26.045 9.468c-2.088 0-3.972-.432-5.652-1.296-1.68-.864-3-2.064-3.96-3.6-.936-1.536-1.404-3.276-1.404-5.22 0-1.92.468-3.648 1.404-5.184.96-1.536 2.268-2.724 3.924-3.564 1.68-.864 3.576-1.296 5.688-1.296 2.112 0 4.008.432 5.688 1.296 1.68.84 2.988 2.028 3.924 3.564.936 1.512 1.404 3.24 1.404 5.184s-.468 3.684-1.404 5.22c-.936 1.536-2.244 2.736-3.924 3.6-1.68.864-3.576 1.296-5.688 1.296zm0-5.436c1.2 0 2.184-.408 2.952-1.224.768-.84 1.152-1.992 1.152-3.456 0-1.44-.384-2.568-1.152-3.384-.768-.816-1.752-1.224-2.952-1.224s-2.184.408-2.952 1.224c-.768.816-1.152 1.944-1.152 3.384 0 1.464.384 2.616 1.152 3.456.768.816 1.752 1.224 2.952 1.224zm31.145 0V27h-18v-4.032l3.205-3.708h-2.088v-4.248h5.796l2.123-2.448h-8.784V7.488H67.07v3.996l-3.095 3.564h2.268v4.248h-5.976l-2.233 2.592h9.396zm10.815 5.436c-2.4 0-4.272-.612-5.616-1.836-1.32-1.248-1.98-3.024-1.98-5.328V.288h6.84V19.8c0 .72.18 1.272.54 1.656.384.384.912.576 1.584.576.552 0 1.068-.12 1.548-.36l.288 5.148c-1.032.336-2.1.504-3.204.504zm15.099 0c-2.088 0-3.972-.432-5.652-1.296-1.68-.864-3-2.064-3.96-3.6-.936-1.536-1.404-3.276-1.404-5.22 0-1.92.468-3.648 1.403-5.184.96-1.536 2.269-2.724 3.925-3.564 1.68-.864 3.575-1.296 5.688-1.296 2.112 0 4.008.432 5.688 1.296 1.679.84 2.987 2.028 3.923 3.564.936 1.512 1.404 3.24 1.404 5.184s-.468 3.684-1.404 5.22c-.936 1.536-2.244 2.736-3.924 3.6-1.68.864-3.576 1.296-5.688 1.296zm0-5.436c1.2 0 2.184-.408 2.952-1.224.767-.84 1.151-1.992 1.151-3.456 0-1.44-.383-2.568-1.151-3.384-.769-.816-1.753-1.224-2.953-1.224s-2.184.408-2.952 1.224c-.767.816-1.151 1.944-1.151 3.384 0 1.464.384 2.616 1.151 3.456.768.816 1.752 1.224 2.953 1.224zm34.213-14.4L119.493 27h-7.056l-8.028-19.512h7.02l4.68 11.916 4.932-11.916h6.516z" fill="#000"/></svg>